<svg width="271" height="229" viewBox="0 0 271 229" fill="none" xmlns="http://www.w3.org/2000/svg">
<path d="M299.722 3.21871V2.18024C284.223 15.7063 272.8 46.1075 270.463 80.1434C269.84 89.3599 266.387 95.3051 260.468 97.3561C256.106 98.8619 250.628 98.2388 244.605 95.5128C238.608 92.7868 232.637 88.2695 227.341 82.4281C225.316 80.1954 222.745 77.6511 219.993 74.9511C207.246 62.4115 189.826 45.2249 197.822 29.9853C202.21 21.6516 210.491 20.0939 219.241 18.4583C228.119 16.7967 237.31 15.0832 241.723 5.60719C243.047 2.7514 243.982 -0.545746 244.527 -4.28424H242.944C242.424 -0.779402 241.542 2.28409 240.296 4.95815C236.22 13.7073 227.808 15.2909 218.929 16.9525C210.18 18.5881 201.145 20.2756 196.42 29.2843C190.189 41.1748 198.056 53.7922 207.869 64.7481C214.801 73.4453 223.472 81.4156 228.535 87.2829C245.929 107.481 272.203 113.712 275.474 86.8935C278.719 60.4904 287.754 36.4238 299.696 21.2362L299.722 3.21871Z" fill="#C8E2DE"/>
<path d="M17.2322 49.9761C16.7908 53.0137 15.8562 56.181 14.8696 59.5301C13.1821 65.2676 11.4687 71.135 12.0398 76.8206C11.5465 81.8832 11.936 86.8678 14.4543 91.4371C17.4658 96.8891 24.7611 98.6804 30.1352 96.4218C46.9844 89.3342 47.8671 63.9695 67.0788 60.4647H67.1047C75.1269 58.2839 84.2914 62.8013 90.2886 67.76C100.44 76.1975 108.799 91.5669 110.513 105.456C110.487 106.08 110.487 106.729 110.461 107.352C110.305 112.907 110.149 119.06 110.565 125.161C110.617 135.546 111.629 146.346 116.744 154.602C124.792 167.635 145.457 164 141.797 151.746C142.238 151.175 142.628 150.552 142.887 149.903C143.952 147.359 144.185 143.023 139.123 137C133.645 130.458 131.178 124.357 131.308 117.814C131.438 112.051 133.593 105.82 138.266 97.616C142.42 90.3467 148.547 83.363 155.063 75.9898C165.084 64.5926 175.469 52.78 178.403 39.4357C180.194 31.2577 179.935 21.8855 177.598 11.5527C176.456 6.49018 174.82 1.16802 172.691 -4.33588H171.03C173.236 1.29783 174.924 6.72384 176.092 11.8902C178.377 21.9894 178.636 31.1539 176.897 39.0982C174.041 52.0531 163.812 63.7099 153.895 74.9773C147.353 82.4284 141.148 89.464 136.916 96.8631C132.087 105.301 129.88 111.765 129.75 117.788C129.595 124.746 132.191 131.159 137.928 138.012C141.537 142.322 142.731 146.216 141.433 149.306C140.265 152.058 137.176 153.901 133.126 154.213C128.53 154.576 121.806 152.733 117.886 146.424C111.214 135.65 111.655 119.969 111.993 107.378C112.019 106.08 112.071 104.807 112.096 103.561C112.434 88.5034 103.477 69.4734 91.2751 59.3483C85.1481 54.2598 75.6721 49.6386 67.3903 51.8973H67.3643C59.0825 54.2339 53.5008 62.8272 48.1267 71.1609C44.2324 77.1581 40.5718 82.8178 36.0545 86.089C31.7448 89.2303 27.2534 90.4765 23.437 89.6198C20.2178 88.8928 17.5956 86.764 15.6485 83.2591C11.6244 76.0158 14.0389 67.8378 16.3495 59.9455C17.362 56.5445 18.2966 53.3252 18.7639 50.1838C20.088 41.1491 19.0755 30.5048 15.9341 20.224C12.9485 10.5143 8.19747 1.92091 2.408 -4.30991H0.253174C6.32823 1.81706 11.3388 10.6441 14.4283 20.6913C17.4918 30.6087 18.5043 41.279 17.2322 49.9761Z" fill="#C8E2DE"/>
<path d="M276.538 115.634C269.139 129.835 262.156 143.283 253.822 147.878C248.681 150.708 244.268 151.253 240.322 149.566C229.703 144.944 224.537 124.461 219.968 106.391C216.541 92.7613 213.555 81.0006 208.726 76.3015C202.937 70.6678 196.758 68.461 190.371 69.7332C172.094 73.3419 157.452 103.977 153.402 113.297C146.963 128.069 148.028 138.636 157.166 151.071C158.309 152.629 159.659 154.265 161.086 156.004C167.343 163.637 175.106 173.165 171.523 183.004C168.719 190.715 170.459 198.685 176.56 206.032C181.674 212.159 189.696 217.585 198.575 220.883C201.795 222.077 205.144 223.115 208.389 224.128C220.435 227.866 231.806 231.423 239.05 242.69C241.386 246.325 243.697 250.661 245.748 255.386H247.435C245.28 250.323 242.84 245.702 240.348 241.834C232.793 230.099 220.617 226.309 208.83 222.622C205.611 221.61 202.288 220.597 199.094 219.403C190.449 216.209 182.661 210.965 177.728 205.02C173.73 200.217 169.654 192.584 172.951 183.524C176.845 172.853 168.771 162.962 162.255 155.018C160.853 153.304 159.529 151.669 158.386 150.137C149.637 138.246 148.625 128.095 154.804 113.92C157.114 108.624 161.995 98.343 168.745 88.9449C176.196 78.6121 183.569 72.6669 190.631 71.2649C196.498 70.1226 202.21 72.1736 207.61 77.4179C212.127 81.8054 215.191 93.9555 218.436 106.781C223.083 125.213 228.353 146.087 239.673 150.994C244.034 152.889 249.019 152.292 254.549 149.254C263.298 144.425 270.386 130.795 277.888 116.361C284.587 103.483 291.466 90.2949 299.696 83.1294V81.1044C290.791 88.2439 283.574 102.082 276.538 115.634Z" fill="#C8E2DE"/>
<path d="M285.703 145.022C281.523 153.46 277.551 161.43 272.307 165.247C264.103 171.218 254.704 173.554 245.826 171.815C236.765 170.05 228.717 164.156 223.213 155.251C221.006 151.669 218.877 144.685 216.619 137.26C212.101 122.41 206.987 105.586 198.108 103.354C195.2 102.627 192.578 102.964 190.319 104.366C184.27 108.105 181.96 118.671 180.116 127.135C179.311 130.795 178.636 133.963 177.78 135.91C173.185 146.45 173.963 154.005 180.48 162.884C181.466 164.208 182.557 165.506 183.725 166.908C186.762 170.517 189.93 174.229 190.838 178.513C191.28 180.616 190.89 182.615 190.475 184.744C189.982 187.288 189.463 189.936 190.527 192.636C194.681 203.384 209.661 207.331 221.707 210.498C225.056 211.381 228.223 212.211 230.768 213.094C247.331 218.858 269.996 226.724 280.822 243.547C282.925 246.819 284.976 250.869 286.689 255.282H288.351C286.56 250.531 284.379 246.169 282.12 242.691C271.008 225.426 248.032 217.43 231.261 211.614C228.639 210.706 225.446 209.875 222.071 208.966C210.362 205.877 195.797 202.06 191.929 192.039C191.046 189.729 191.488 187.444 191.955 185.004C192.37 182.823 192.812 180.538 192.318 178.15C191.332 173.477 188.061 169.608 184.893 165.87C183.751 164.52 182.661 163.222 181.726 161.949C175.573 153.59 174.872 146.476 179.208 136.507C180.116 134.43 180.817 131.185 181.648 127.446C183.439 119.242 185.672 109.065 191.15 105.664C193.071 104.47 195.2 104.211 197.744 104.834C205.792 106.859 210.985 123.941 215.139 137.701C217.527 145.542 219.578 152.318 221.889 156.056C227.652 165.325 236.038 171.477 245.54 173.321C254.86 175.138 264.674 172.724 273.241 166.493C278.797 162.443 282.847 154.317 287.105 145.697C290.869 138.091 294.737 130.328 299.748 125.343V123.163C294.011 128.277 289.805 136.741 285.703 145.022Z" fill="#C8E2DE"/>
<path d="M288.48 172.385L287.701 173.034C277.81 181.109 266.62 190.247 253.172 186.015C249.849 184.977 246.604 183.237 243.488 181.576C236.608 177.915 229.495 174.125 220.901 177.292C215.683 179.213 214.307 181.939 214.047 183.912C213.658 187.08 215.891 190.507 220.33 193.518C227.054 198.088 235.102 200.139 242.891 202.112C246.655 203.072 250.55 204.059 254.158 205.305C268.697 210.368 287.935 217.04 299.747 229.995V227.736C287.623 215.326 268.905 208.81 254.678 203.851C250.991 202.579 247.071 201.566 243.28 200.606C235.622 198.659 227.729 196.634 221.213 192.22C217.345 189.572 215.294 186.612 215.605 184.094C215.865 181.913 217.89 180.07 221.447 178.746C229.391 175.812 235.881 179.291 242.761 182.952C245.954 184.639 249.252 186.405 252.705 187.495H252.73C266.984 191.961 278.511 182.536 288.714 174.229L289.492 173.58C289.752 173.372 290.115 173.06 290.557 172.697C293.906 169.919 296.969 167.505 299.747 165.48V163.532C296.19 166.077 292.634 168.933 289.544 171.503C289.103 171.892 288.739 172.178 288.48 172.385Z" fill="#C8E2DE"/>
<path d="M44.3158 103.71C41.4393 110.878 40.4473 117.385 41.4944 122.028C42.9867 128.638 48.0727 132.277 53.0062 135.774C54.7651 137.046 56.6178 138.369 58.2358 139.793C62.4618 143.521 64.6595 147.99 66.9964 152.73C69.4331 157.667 71.9313 162.768 76.9085 166.907L77.0214 166.976C79.6944 168.597 82.1812 169.693 84.4086 170.266C93.5313 174.241 104.047 174.413 107.548 165.383C111.948 154.002 96.3051 141.246 92.2608 131.429C86.7552 118.107 94.3919 104.944 90.5078 91.2822C87.7329 81.5078 76.9736 75.1724 72.5724 75.8425C72.0426 75.9185 71.4966 76.0504 70.9698 76.1998C70.6396 76.2129 70.3285 76.2435 69.9997 76.2933C65.4885 76.9677 60.6299 80.0075 55.9259 85.0989C51.2909 90.0773 47.0762 96.8579 44.3158 103.71ZM68.4011 152.013C66.1037 147.345 63.7272 142.534 59.2723 138.595C57.5972 137.118 55.7253 135.777 53.9107 134.489C49.0139 130.99 44.3813 127.664 43.0237 121.674C41.0202 112.824 47.4491 96.5309 57.0509 86.1384C61.5083 81.314 66.0616 78.4516 70.2074 77.8283C74.6453 77.1568 78.1096 81.1351 80.5197 89.5828C82.1841 95.4328 82.9224 101.558 83.6167 107.502C84.5728 115.419 85.5391 123.593 88.7097 131.294C89.8677 134.096 91.4454 136.826 92.9821 139.448C96.9426 146.218 100.669 152.629 97.6347 160.465C96.6841 162.91 95.5313 164.884 94.2452 166.276C90.5454 170.281 85.1732 170.089 77.8335 165.676C73.1762 161.726 70.7395 156.789 68.4011 152.013Z" fill="#C8E2DE"/>
<path d="M229.416 37.9819C229.001 38.6569 228.689 39.4098 228.456 40.2146C227.002 45.3031 228.508 51.3003 232.558 56.6484C237.283 62.8793 244.448 66.9293 250.809 66.9293C251.484 66.9293 252.185 66.8774 252.834 66.7995C255.638 66.4101 257.87 64.9562 259.506 62.4639C262.751 57.4792 262.829 48.9897 261.271 43.5118C260.363 40.3444 257.689 37.4627 253.743 35.4117C250.16 33.5425 245.746 32.478 241.618 32.478C235.933 32.504 231.467 34.503 229.416 37.9819ZM259.766 43.9272C261.038 48.3147 261.375 56.7004 258.182 61.6071C256.806 63.71 254.937 64.9302 252.6 65.2418C252.003 65.3197 251.406 65.3716 250.783 65.3716C244.89 65.3716 238.191 61.5812 233.778 55.7138C230.039 50.7551 228.637 45.2512 229.936 40.63C230.117 39.955 230.403 39.3319 230.74 38.7608C232.532 35.7492 236.478 34.0357 241.618 34.0357C248.992 34.0617 258.026 37.8262 259.766 43.9272Z" fill="#C8E2DE"/>
<path d="M142.451 35.7653C142.678 35.0058 142.784 34.1979 142.801 33.36C142.888 28.0686 139.882 22.6655 134.585 18.5479C128.409 13.7523 120.439 11.6948 114.295 13.3411C113.643 13.5158 112.98 13.7473 112.373 13.9906C109.765 15.0924 107.985 17.0746 107.05 19.9053C105.206 25.5601 107.328 33.7804 110.25 38.6686C111.948 41.4928 115.276 43.5843 119.619 44.544C123.563 45.4223 128.102 45.3081 132.089 44.2397C137.574 42.7431 141.37 39.6564 142.451 35.7653ZM111.597 37.8776C109.233 33.9688 106.736 25.9562 108.551 20.3902C109.336 18.0028 110.825 16.3404 113.002 15.4347C113.558 15.2049 114.122 15.0002 114.724 14.839C120.416 13.3137 127.867 15.2413 133.649 19.7665C138.543 23.5886 141.322 28.5421 141.264 33.3418C141.263 34.0408 141.149 34.7166 140.971 35.3557C140.02 38.7282 136.651 41.4047 131.686 42.7351C124.558 44.6184 114.856 43.3205 111.597 37.8776Z" fill="#C8E2DE"/>
<path d="M119.51 76.2176C120.147 77.3198 121.439 78.5822 123.932 78.3185C126.265 78.074 129.709 76.4037 131.302 74.7496C133.601 72.3687 133.059 67.6115 131.213 64.4151C129.898 62.1372 128.051 60.8036 126.14 60.8042C125.769 60.7979 125.383 60.8496 124.999 60.9487C122.986 61.4497 121.119 63.4339 119.869 66.36C118.596 69.373 117.994 73.5906 119.51 76.2176ZM125.31 62.1655C125.591 62.1011 125.865 62.0657 126.13 62.0592C127.585 62.0764 129.019 63.1593 130.111 65.0515C132.148 68.5786 131.833 72.3608 130.385 73.8828C129.025 75.3043 125.82 76.8367 123.79 77.0536C122.335 77.2074 121.27 76.7202 120.613 75.5812C119.499 73.6523 119.683 70.068 121.047 66.831C122.123 64.324 123.709 62.5752 125.31 62.1655Z" fill="#C8E2DE"/>
<path d="M52.1291 48.9951C56.3868 49.0989 60.6186 47.3075 65.1359 43.5431C72.1975 37.6238 76.2735 29.0045 80.2197 20.6967C80.4534 20.1775 80.687 19.6842 80.9467 19.191C89.566 1.04368 97.718 -13.7026 109.505 -26.6316C110.024 -27.2027 110.595 -27.8518 111.244 -28.5527C112.179 -29.5912 113.243 -30.7855 114.411 -32.0576L112.308 -32.0576C111.504 -31.1749 110.777 -30.3441 110.102 -29.5912C109.479 -28.8902 108.882 -28.2412 108.388 -27.67C96.4718 -14.5853 88.2679 0.264822 79.5707 18.5419C79.337 19.0352 79.1034 19.5544 78.8437 20.0737C74.9754 28.2516 70.9773 36.6892 64.1753 42.4008C59.9695 45.9056 56.0493 47.5931 52.207 47.4893C47.1704 47.3854 42.9127 46.0614 39.9011 43.6729C36.6299 41.0767 34.9943 37.4161 35.0982 32.769C35.2539 24.5391 38.9146 17.088 42.4713 9.87067C46.0021 2.67926 49.6368 -4.71985 50.0262 -13.1055C50.3377 -20.1931 49.4031 -26.7354 47.3781 -32.0576L45.7165 -32.0576C47.7935 -26.8652 48.78 -20.3229 48.4685 -13.1834C48.105 -5.13523 44.5223 2.13407 41.0694 9.16971C37.4607 16.5169 33.7222 24.1237 33.5405 32.717C33.3068 42.4786 40.4463 48.7354 52.1291 48.9951Z" fill="#C8E2DE"/>
</svg>
