<svg width="248" height="174" viewBox="0 0 248 174" fill="none" xmlns="http://www.w3.org/2000/svg">
<path d="M1.58203 64.3428C0.710457 61.5785 2.24485 58.631 5.0092 57.7594L183.198 1.5782C185.962 0.706624 188.909 2.24102 189.781 5.00536L219.608 99.6054C220.479 102.37 218.945 105.317 216.18 106.189L37.992 162.37C35.2276 163.242 32.2801 161.707 31.4086 158.943L1.58203 64.3428Z" fill="url(#paint0_radial)"/>
<mask id="mask0" mask-type="alpha" maskUnits="userSpaceOnUse" x="0" y="0" width="221" height="164">
<path d="M1.58203 64.3428C0.710457 61.5785 2.24485 58.631 5.0092 57.7594L182.814 1.6992C185.578 0.827631 188.526 2.36202 189.397 5.12637L219.224 99.7264C220.095 102.491 218.561 105.438 215.797 106.31L37.992 162.37C35.2276 163.242 32.2801 161.707 31.4086 158.943L1.58203 64.3428Z" fill="url(#paint1_radial)"/>
</mask>
<g mask="url(#mask0)">
<path fill-rule="evenodd" clip-rule="evenodd" d="M190.761 85.3341C239.263 72.578 268.172 22.6562 255.331 -26.1695C242.49 -74.9951 192.761 -104.235 144.259 -91.4792C95.7564 -78.7231 66.8473 -28.8012 79.6884 20.0244C92.5296 68.8501 142.258 98.0902 190.761 85.3341Z" fill="white" fill-opacity="0.1" style="mix-blend-mode:soft-light"/>
<path fill-rule="evenodd" clip-rule="evenodd" d="M181.426 48.1556C231.653 34.9459 261.592 -16.7416 248.297 -67.2918C235.003 -117.842 183.508 -148.112 133.282 -134.903C83.0548 -121.693 53.1154 -70.0056 66.41 -19.4554C79.7047 31.0947 131.199 61.3652 181.426 48.1556Z" fill="white" fill-opacity="0.1" style="mix-blend-mode:soft-light"/>
<path fill-rule="evenodd" clip-rule="evenodd" d="M220.813 141.821C282.25 125.663 318.863 62.411 302.592 0.543653C286.321 -61.3237 223.327 -98.3787 161.891 -82.221C100.454 -66.0633 63.8407 -2.81144 80.1118 59.0559C96.3829 120.923 159.377 157.978 220.813 141.821Z" fill="white" fill-opacity="0.1" style="mix-blend-mode:soft-light"/>
</g>
<path d="M192.887 15.031L4.73438 74.3536L11.8359 96.8775L199.988 37.5548L192.887 15.031Z" fill="#323643"/>
<path d="M51.668 73.3992C51.668 70.5007 54.0177 68.151 56.9162 68.151H243.751C246.65 68.151 249 70.5007 249 73.3992V172.59C249 175.488 246.65 177.838 243.751 177.838H56.9162C54.0177 177.838 51.668 175.488 51.668 172.59V73.3992Z" fill="url(#paint2_radial)"/>
<mask id="mask1" mask-type="alpha" maskUnits="userSpaceOnUse" x="51" y="68" width="198" height="110">
<path d="M51.668 73.3992C51.668 70.5007 54.0177 68.151 56.9162 68.151H243.751C246.65 68.151 249 70.5007 249 73.3992V172.59C249 175.488 246.65 177.838 243.751 177.838H56.9162C54.0177 177.838 51.668 175.488 51.668 172.59V73.3992Z" fill="url(#paint3_radial)"/>
</mask>
<g mask="url(#mask1)">
<path fill-rule="evenodd" clip-rule="evenodd" d="M225.783 150.305C275.876 152.723 318.458 113.805 320.893 63.3776C323.328 12.9504 284.694 -29.8899 234.6 -32.3087C184.507 -34.7276 141.924 4.19089 139.49 54.6181C137.055 105.045 175.689 147.886 225.783 150.305Z" fill="white" fill-opacity="0.1" style="mix-blend-mode:soft-light"/>
<path fill-rule="evenodd" clip-rule="evenodd" d="M228.059 112.038C279.934 114.543 324.03 74.2502 326.551 22.0418C329.072 -30.1665 289.063 -74.5203 237.189 -77.0252C185.314 -79.5301 141.218 -39.2374 138.697 12.9709C136.176 65.1793 176.185 109.533 228.059 112.038Z" fill="white" fill-opacity="0.1" style="mix-blend-mode:soft-light"/>
<path fill-rule="evenodd" clip-rule="evenodd" d="M237.46 213.212C300.912 216.276 354.85 166.961 357.936 103.064C361.021 39.1676 312.085 -15.1148 248.633 -18.1787C185.182 -21.2425 131.243 28.0723 128.158 91.969C125.072 155.866 174.009 210.148 237.46 213.212Z" fill="white" fill-opacity="0.1" style="mix-blend-mode:soft-light"/>
</g>
<path d="M211.321 94.4049C210.585 95.3552 209.672 96.0751 208.567 96.5433C207.554 96.9728 206.498 97.1553 205.405 97.0514C202.993 96.8225 201.181 95.6316 199.982 93.5147C199.303 92.3142 199.034 91.0026 199.179 89.6294C199.46 86.9598 200.837 85.0597 203.248 83.9368C204.229 83.4797 205.279 83.3023 206.358 83.3931C208.939 83.6088 210.825 84.8952 212.028 87.2002C212.291 87.7037 212.461 88.2447 212.581 88.8008C212.577 88.8474 212.539 88.8628 212.506 88.8815C211.612 89.3841 211.108 90.1667 210.899 91.1595C210.8 91.6298 210.787 92.1046 210.824 92.5833C210.87 93.1919 211.01 93.7705 211.305 94.3071C211.321 94.3372 211.341 94.3681 211.321 94.4049Z" fill="#EE342C"/>
<path d="M217.043 90.3501C216.722 89.4654 216.148 88.8298 215.227 88.5742C214.321 88.3228 213.435 88.4017 212.579 88.8016C211.756 89.2352 211.206 89.9056 210.959 90.8022C210.619 92.044 210.699 93.2557 211.318 94.4062C211.83 95.222 212.578 95.69 213.5 95.8828C214.677 96.1277 215.83 95.9858 216.965 95.6275C217.042 95.6029 217.052 95.5633 217.043 95.4921C216.98 95.0066 216.92 94.5207 216.862 94.0346C216.854 93.9667 216.836 93.9527 216.771 93.9713C216.423 94.0708 216.068 94.1445 215.709 94.1919C215.169 94.2643 214.626 94.3086 214.089 94.1777C213.39 94.0066 212.906 93.5995 212.723 92.8747C212.688 92.733 212.69 92.7323 212.839 92.7323C214.274 92.7323 215.709 92.7323 217.144 92.7323C217.216 92.7323 217.263 92.7295 217.274 92.6355C217.361 91.8566 217.311 91.0905 217.043 90.3501ZM215.44 91.2728C214.557 91.2728 213.675 91.2728 212.793 91.2728C212.766 91.2728 212.738 91.2784 212.714 91.2613C212.74 90.4791 213.348 89.8746 214.11 89.8739C214.882 89.8739 215.488 90.471 215.518 91.262C215.494 91.2788 215.466 91.2725 215.44 91.2728Z" fill="white"/>
<path d="M238.245 90.3925C237.983 89.6341 237.528 89.0387 236.783 88.7056C236.155 88.4255 235.494 88.3762 234.823 88.4808C233.447 88.6953 232.552 89.4861 232.139 90.8225C231.916 91.5409 231.914 92.2783 232.027 93.0166C232.131 93.7012 232.374 94.3298 232.841 94.8518C233.486 95.5735 234.326 95.8788 235.258 95.9745C235.794 96.0298 236.329 96.0016 236.861 95.9278C237.3 95.8691 237.733 95.7675 238.153 95.6244C238.196 95.6092 238.245 95.6071 238.235 95.5273C238.169 95.0306 238.109 94.5329 238.05 94.0353C238.042 93.9692 238.024 93.9517 237.957 93.9704C237.467 94.1094 236.965 94.1996 236.458 94.2395C236.003 94.2754 235.548 94.2754 235.108 94.1307C234.478 93.9239 234.062 93.5117 233.905 92.8502C233.88 92.7451 233.908 92.729 234.005 92.7295C234.726 92.733 235.448 92.7314 236.169 92.7314C236.894 92.7314 237.619 92.7314 238.344 92.7314C238.407 92.7314 238.448 92.7314 238.458 92.6455C238.552 91.8785 238.498 91.1247 238.245 90.3925ZM236.694 91.2849C236.65 91.266 236.603 91.2723 236.558 91.2723C235.712 91.2723 234.867 91.2723 234.022 91.2723C233.98 91.2723 233.937 91.2832 233.897 91.2618C233.941 90.5848 234.395 90.0246 234.998 89.903C235.729 89.7555 236.348 90.1042 236.599 90.811C236.654 90.9625 236.72 91.1154 236.695 91.2849H236.694Z" fill="white"/>
<path d="M231.254 88.609C230.939 89.7582 230.579 90.8922 230.172 92.0111C229.709 93.2762 229.192 94.5166 228.575 95.7133C228.533 95.7936 228.49 95.8224 228.399 95.8214C227.936 95.8158 227.474 95.8158 227.011 95.8214C226.921 95.8226 226.876 95.7948 226.834 95.7143C226.155 94.3962 225.595 93.0267 225.101 91.6294C224.761 90.668 224.453 89.6962 224.187 88.7117C224.177 88.6762 224.153 88.6417 224.175 88.6013C224.2 88.5861 224.227 88.5912 224.254 88.5912C224.869 88.5912 225.483 88.5912 226.098 88.5912C226.128 88.5912 226.16 88.5821 226.187 88.6045C226.442 89.6797 226.75 90.7413 227.111 91.7851C227.284 92.2835 227.467 92.7774 227.667 93.2648C227.677 93.2897 227.69 93.3138 227.709 93.3581C227.839 93.0204 227.967 92.7006 228.085 92.3778C228.54 91.1448 228.919 89.885 229.221 88.6052C229.244 88.5833 229.272 88.5908 229.298 88.5908C229.921 88.5908 230.545 88.5908 231.169 88.5908C231.198 88.5898 231.232 88.5744 231.254 88.609Z" fill="white"/>
<path d="M221.721 90.1894C221.42 90.2127 221.145 90.3026 220.904 90.4879C220.903 90.4982 220.897 90.5022 220.887 90.4984C220.845 90.5363 220.867 90.5862 220.867 90.6296C220.865 92.3157 220.866 94.0018 220.868 95.6878C220.868 95.7912 220.845 95.8223 220.739 95.8214C220.145 95.8155 219.552 95.8188 218.959 95.8181C218.917 95.8181 218.875 95.8127 218.833 95.8097C218.801 95.7768 218.816 95.7357 218.816 95.6988C218.816 93.5962 218.816 91.4935 218.816 89.3909C218.816 89.3542 218.8 89.3129 218.833 89.2802C219.448 88.8447 220.138 88.6054 220.878 88.5127C221.572 88.4286 222.275 88.4661 222.956 88.6236C223.062 88.647 223.096 88.6782 223.071 88.7987C222.975 89.2655 222.892 89.7361 222.81 90.2062C222.795 90.2928 222.766 90.2996 222.692 90.2762C222.534 90.2281 222.373 90.1894 222.206 90.1882C222.044 90.1908 221.882 90.1903 221.721 90.1894Z" fill="white"/>
<path d="M203.292 86.4335C203.426 86.743 203.525 87.0659 203.639 87.3824C204.335 89.2927 205.08 91.1831 205.889 93.0472C205.901 93.0734 205.902 93.1077 205.945 93.1292C206.073 92.8292 206.203 92.5323 206.328 92.2335C207.121 90.3494 207.857 88.4431 208.537 86.5147C208.549 86.4867 208.563 86.4597 208.58 86.434C208.613 86.3959 208.658 86.4074 208.699 86.4074C209.387 86.4074 210.075 86.4074 210.763 86.4074C210.804 86.4074 210.848 86.3971 210.882 86.434C210.902 86.4884 210.868 86.5323 210.852 86.578C209.963 89.063 208.93 91.4873 207.802 93.8712C207.512 94.4844 207.206 95.0901 206.912 95.7012C206.87 95.7897 206.821 95.8233 206.721 95.8221C206.193 95.8165 205.665 95.8177 205.137 95.8221C205.053 95.8221 205.008 95.8011 204.968 95.7225C203.711 93.2113 202.565 90.6502 201.556 88.0285C201.371 87.5474 201.196 87.0621 201.018 86.578C201.002 86.533 200.967 86.4884 200.99 86.4342C201.023 86.3969 201.068 86.4071 201.109 86.4071C201.797 86.4071 202.485 86.4071 203.173 86.4071C203.213 86.4071 203.26 86.3957 203.292 86.4335Z" fill="white"/>
<path d="M203.291 86.4346H200.989C200.977 86.4273 200.963 86.421 200.982 86.4068C201.011 86.3886 201.042 86.3958 201.073 86.3958C201.792 86.3958 202.511 86.3958 203.23 86.3958C203.26 86.3958 203.292 86.3886 203.32 86.407L203.291 86.4346Z" fill="white"/>
<path d="M210.882 86.4341H208.58L208.551 86.407C208.579 86.3886 208.611 86.3958 208.641 86.3958C209.36 86.3958 210.079 86.3958 210.798 86.3958C210.828 86.3958 210.86 86.3886 210.888 86.4068C210.908 86.421 210.894 86.4273 210.882 86.4341Z" fill="white"/>
<path d="M203.322 86.4074H200.984C201.015 86.3717 201.056 86.384 201.092 86.384C201.8 86.384 202.507 86.384 203.214 86.384C203.251 86.3845 203.292 86.3717 203.322 86.4074Z" fill="white"/>
<path d="M210.888 86.406H208.551C208.581 86.3703 208.622 86.3827 208.659 86.3827C209.366 86.3827 210.073 86.3827 210.78 86.3827C210.817 86.3834 210.858 86.3703 210.888 86.406Z" fill="white"/>
<path d="M206.813 95.8551H205.037V95.8441H206.81L206.813 95.8551Z" fill="white"/>
<path d="M67.8913 161.196L69.1213 159.172H70.2284L68.414 161.914L70.2847 164.717H69.1879L67.9066 162.641L66.6254 164.717H65.5234L67.3941 161.914L65.5798 159.172H66.6766L67.8913 161.196Z" fill="#F5F5F5"/>
<path d="M73.0985 161.196L74.3285 159.172H75.4355L73.6212 161.914L75.4919 164.717H74.3951L73.1138 162.641L71.8325 164.717H70.7306L72.6013 161.914L70.787 159.172H71.8838L73.0985 161.196Z" fill="#F5F5F5"/>
<path d="M78.3056 161.196L79.5357 159.172H80.6427L78.8284 161.914L80.6991 164.717H79.6023L78.321 162.641L77.0397 164.717H75.9378L77.8085 161.914L75.9942 159.172H77.091L78.3056 161.196Z" fill="#F5F5F5"/>
<path d="M83.5128 161.196L84.7429 159.172H85.8499L84.0356 161.914L85.9063 164.717H84.8095L83.5282 162.641L82.2469 164.717H81.145L83.0157 161.914L81.2014 159.172H82.2981L83.5128 161.196Z" fill="#F5F5F5"/>
<path d="M95.0475 162.712H95.8758V163.331H95.0475V164.717H94.2849V163.331H91.5665V162.884L94.2398 158.747H95.0475V162.712ZM92.4276 162.712H94.2849V159.785L94.1947 159.949L92.4276 162.712Z" fill="#F5F5F5"/>
<path d="M96.909 161.724L97.2124 158.747H100.271V159.449H97.8561L97.6757 161.076C97.9682 160.904 98.3003 160.818 98.6721 160.818C99.216 160.818 99.6479 160.998 99.9677 161.359C100.288 161.717 100.447 162.202 100.447 162.815C100.447 163.43 100.281 163.915 99.9472 164.27C99.6165 164.623 99.1532 164.799 98.5573 164.799C98.0297 164.799 97.5992 164.653 97.2657 164.36C96.9322 164.068 96.7423 163.663 96.6958 163.147H97.4133C97.4598 163.489 97.5814 163.747 97.7782 163.922C97.975 164.094 98.2347 164.18 98.5573 164.18C98.9099 164.18 99.186 164.06 99.3855 163.819C99.5878 163.579 99.6889 163.247 99.6889 162.823C99.6889 162.424 99.5796 162.104 99.3609 161.863C99.145 161.62 98.8566 161.499 98.4958 161.499C98.165 161.499 97.9053 161.571 97.7167 161.716L97.5158 161.88L96.909 161.724Z" fill="#F5F5F5"/>
<path d="M104.252 158.743V159.387H104.113C103.523 159.398 103.052 159.573 102.703 159.912C102.353 160.251 102.15 160.728 102.096 161.343C102.41 160.982 102.839 160.802 103.383 160.802C103.902 160.802 104.317 160.985 104.625 161.351C104.937 161.717 105.093 162.19 105.093 162.77C105.093 163.385 104.925 163.877 104.589 164.246C104.255 164.615 103.807 164.799 103.244 164.799C102.672 164.799 102.209 164.581 101.854 164.143C101.498 163.703 101.321 163.137 101.321 162.446V162.155C101.321 161.056 101.554 160.217 102.022 159.637C102.492 159.055 103.19 158.757 104.117 158.743H104.252ZM103.256 161.433C102.996 161.433 102.757 161.511 102.539 161.667C102.32 161.822 102.168 162.018 102.083 162.253V162.532C102.083 163.024 102.194 163.42 102.416 163.721C102.637 164.022 102.913 164.172 103.244 164.172C103.585 164.172 103.853 164.046 104.047 163.795C104.244 163.543 104.343 163.214 104.343 162.807C104.343 162.397 104.243 162.066 104.043 161.814C103.846 161.56 103.584 161.433 103.256 161.433Z" fill="#F5F5F5"/>
<path d="M109.845 159.174L107.373 164.717H106.577L109.041 159.371H105.81V158.747H109.845V159.174Z" fill="#F5F5F5"/>
<path d="M65.7031 107.357C65.7031 106.676 65.8644 106.13 66.1869 105.717C66.5095 105.302 66.9318 105.094 67.4539 105.094C67.9732 105.094 68.3846 105.271 68.688 105.627V103.314H69.4466V109.612H68.7495L68.7126 109.137C68.4092 109.508 67.9869 109.694 67.4457 109.694C66.9318 109.694 66.5122 109.484 66.1869 109.063C65.8644 108.642 65.7031 108.092 65.7031 107.414V107.357ZM66.4617 107.443C66.4617 107.946 66.5655 108.34 66.7733 108.624C66.981 108.908 67.268 109.05 67.6343 109.05C68.1154 109.05 68.4666 108.834 68.688 108.403V106.365C68.4612 105.947 68.1126 105.738 67.6425 105.738C67.2707 105.738 66.981 105.881 66.7733 106.168C66.5655 106.455 66.4617 106.88 66.4617 107.443Z" fill="white"/>
<path d="M72.4684 109.694C71.867 109.694 71.3777 109.497 71.0005 109.104C70.6233 108.707 70.4347 108.178 70.4347 107.517V107.378C70.4347 106.937 70.5181 106.545 70.6848 106.201C70.8543 105.854 71.0893 105.583 71.39 105.389C71.6934 105.192 72.0214 105.094 72.3741 105.094C72.9508 105.094 73.3991 105.284 73.7189 105.664C74.0387 106.044 74.1986 106.588 74.1986 107.296V107.611H71.1932C71.2042 108.049 71.3313 108.403 71.5745 108.673C71.8205 108.941 72.1322 109.075 72.5094 109.075C72.7772 109.075 73.0041 109.02 73.19 108.911C73.3759 108.802 73.5385 108.657 73.6779 108.476L74.1412 108.837C73.7695 109.409 73.2119 109.694 72.4684 109.694ZM72.3741 105.717C72.0679 105.717 71.811 105.829 71.6032 106.053C71.3955 106.275 71.267 106.586 71.2178 106.988H73.4401V106.931C73.4182 106.545 73.3144 106.247 73.1285 106.037C72.9426 105.824 72.6911 105.717 72.3741 105.717Z" fill="white"/>
<path d="M78.8359 107.443C78.8359 108.121 78.6801 108.666 78.3685 109.079C78.0569 109.489 77.6386 109.694 77.1138 109.694C76.5535 109.694 76.1202 109.496 75.8141 109.1L75.7772 109.612H75.0802V103.314H75.8387V105.664C76.1448 105.284 76.5671 105.094 77.1056 105.094C77.6441 105.094 78.0664 105.297 78.3726 105.705C78.6814 106.112 78.8359 106.67 78.8359 107.378V107.443ZM78.0774 107.357C78.0774 106.84 77.9776 106.441 77.778 106.16C77.5785 105.878 77.2915 105.738 76.917 105.738C76.4168 105.738 76.0574 105.97 75.8387 106.435V108.353C76.071 108.818 76.4332 109.05 76.9252 109.05C77.2888 109.05 77.5717 108.91 77.7739 108.628C77.9762 108.347 78.0774 107.923 78.0774 107.357Z" fill="white"/>
<path d="M80.6194 109.612H79.8609V105.176H80.6194V109.612ZM79.7994 103.999C79.7994 103.876 79.8363 103.772 79.9101 103.687C79.9867 103.603 80.0987 103.56 80.2463 103.56C80.3939 103.56 80.506 103.603 80.5825 103.687C80.6591 103.772 80.6974 103.876 80.6974 103.999C80.6974 104.122 80.6591 104.225 80.5825 104.307C80.506 104.389 80.3939 104.43 80.2463 104.43C80.0987 104.43 79.9867 104.389 79.9101 104.307C79.8363 104.225 79.7994 104.122 79.7994 103.999Z" fill="white"/>
<path d="M82.8663 104.102V105.176H83.6946V105.762H82.8663V108.513C82.8663 108.691 82.9032 108.825 82.977 108.915C83.0508 109.003 83.1766 109.046 83.3542 109.046C83.4417 109.046 83.562 109.03 83.7151 108.997V109.612C83.5155 109.667 83.3214 109.694 83.1328 109.694C82.7939 109.694 82.5383 109.592 82.3661 109.387C82.1939 109.182 82.1078 108.891 82.1078 108.513V105.762H81.3001V105.176H82.1078V104.102H82.8663Z" fill="white"/>
<path d="M71.7338 94.7449C71.7093 94.5108 71.6849 94.2909 71.6564 94.0244C71.9392 94.0073 72.1437 93.9826 72.3471 93.9826C73.5901 93.9787 74.8321 93.9559 76.0751 93.9864C78.7452 94.053 80.9637 92.4597 81.8334 90.3401C83.0845 87.2963 81.393 84.0908 78.4421 83.0077C77.6212 82.7069 76.7902 82.5575 75.9185 82.5575C73.0113 82.5594 70.1052 82.5575 67.1981 82.5575C67.0333 82.5575 66.8706 82.5499 66.7048 82.5632C66.2521 82.5974 66.1931 82.6584 66.1708 83.0876C66.1647 83.2189 66.1708 83.3503 66.1708 83.4826C66.1708 88.4404 66.1708 93.3953 66.1708 98.3531C66.1708 98.6101 66.1708 98.868 66.1708 99.1592C65.8636 99.1592 65.6449 99.1592 65.4414 99.1592C65.295 98.6215 65.2645 82.6802 65.4069 81.916C65.6327 81.8893 65.8819 81.836 66.128 81.836C69.5031 81.8303 72.8781 81.8608 76.2541 81.8246C79.3321 81.7922 82.0165 83.809 82.7926 86.4369C83.5585 89.0305 82.9106 91.368 80.7613 93.243C79.7309 94.1444 78.437 94.6288 77.0679 94.7164C75.3275 94.8306 73.5647 94.7449 71.7338 94.7449Z" fill="white"/>
<path d="M67.041 99.1552C67.041 93.8776 67.041 88.6457 67.041 83.3663C67.2811 83.3472 67.4835 83.3187 67.6869 83.3187C70.594 83.3149 73.4981 83.313 76.4052 83.3187C78.4427 83.3225 80.4323 84.7806 81.1209 86.4976C81.5013 87.4465 81.541 88.4173 81.3243 89.3377C80.9185 91.0604 79.8494 92.3624 77.9859 92.9478C77.5516 93.0848 77.0837 93.1838 76.627 93.1933C75.15 93.2238 73.6731 93.2085 72.1982 93.2047C71.9703 93.2047 71.7048 93.2428 71.6519 92.9306C71.6092 92.6736 71.7719 92.4671 72.072 92.4405C72.3263 92.4176 72.5877 92.4309 72.8441 92.4309C74.0148 92.429 75.1887 92.4062 76.3595 92.4347C78.1701 92.4785 79.7548 91.2907 80.2685 89.8716C81.1708 87.3751 80.1709 85.581 78.0582 84.4589C77.6543 84.2438 77.1335 84.1334 76.6646 84.1277C73.8531 84.0953 71.0406 84.1086 68.2271 84.1067C68.1355 84.1067 68.044 84.1277 67.869 84.1505C67.8507 84.4208 67.8161 84.6959 67.8161 84.9681C67.812 89.3767 67.8141 93.7834 67.8141 98.192C67.8141 98.3462 67.8202 98.4985 67.812 98.6536C67.7886 99.1628 67.7358 99.199 67.041 99.1552Z" fill="white"/>
<path d="M69.3934 99.1578C69.0984 99.1578 68.8817 99.1578 68.6152 99.1578C68.6152 94.4046 68.6152 89.7019 68.6152 84.9354C68.8756 84.9107 69.1228 84.865 69.371 84.865C71.6444 84.8593 73.9199 84.9145 76.1912 84.846C78.0934 84.7889 79.672 86.2698 79.8745 87.8954C80.0515 89.3174 79.253 91.0801 77.4037 91.5322C76.9124 91.6521 76.3998 91.7339 75.8922 91.7473C74.7682 91.7796 73.6412 91.7568 72.5172 91.7568C72.2852 91.7568 72.0523 91.7568 71.8448 91.7568C71.5274 91.0934 71.6027 90.9659 72.2791 90.9621C73.5445 90.9563 74.8109 90.9297 76.0763 90.9678C77.4719 91.0096 78.5776 90.1864 78.9183 89.1137C79.254 88.0544 78.9488 86.9751 77.8777 86.1461C77.3885 85.7663 76.8148 85.6007 76.1933 85.5969C74.1538 85.5874 72.1154 85.5912 70.0759 85.5969C69.8725 85.5969 69.6701 85.6426 69.3954 85.675C69.3934 90.1883 69.3934 94.654 69.3934 99.1578Z" fill="white"/>
<path d="M71.7053 90.0915C71.6748 89.4833 71.7155 89.4148 72.2495 89.411C73.4925 89.3996 74.7345 89.4091 75.9775 89.4053C76.2114 89.4053 76.4505 89.4072 76.6763 89.3634C77.0181 89.2968 77.2714 89.1121 77.3141 88.759C77.3405 88.542 77.3649 88.3203 77.3527 88.1033C77.312 87.417 77.0049 87.1467 76.2308 87.1372C75.0356 87.1258 73.8394 87.1334 72.6442 87.1334C72.1569 87.1334 71.6687 87.1334 71.1143 87.1334C71.094 87.4684 71.0614 87.7454 71.0614 88.0214C71.0574 91.4221 71.0594 94.8218 71.0594 98.2206C71.0594 98.3748 71.0675 98.5271 71.0574 98.6822C71.0248 99.1648 70.9434 99.2143 70.2812 99.1343C70.2812 94.9008 70.2812 90.6607 70.2812 86.3834C70.505 86.3663 70.6871 86.3415 70.8682 86.3415C72.6259 86.3396 74.3836 86.3491 76.1423 86.3377C76.9937 86.332 77.6009 86.6632 78.02 87.3533C78.5337 88.2013 78.1583 89.5985 77.2642 90.0601C77.1279 90.1305 76.957 90.1667 76.7994 90.1667C75.1597 90.1724 73.52 90.1686 71.8782 90.1648C71.8355 90.1638 71.7928 90.1315 71.7053 90.0915Z" fill="white"/>
<defs>
<radialGradient id="paint0_radial" cx="0" cy="0" r="1" gradientUnits="userSpaceOnUse" gradientTransform="translate(181.439 9.55948) rotate(135.765) scale(210.512 306.398)">
<stop stop-color="#3790BC"/>
<stop offset="1" stop-color="#1FA1FF"/>
</radialGradient>
<radialGradient id="paint1_radial" cx="0" cy="0" r="1" gradientUnits="userSpaceOnUse" gradientTransform="translate(181.074 9.67477) rotate(135.718) scale(210.17 306.271)">
<stop stop-color="#85D7FF"/>
<stop offset="1" stop-color="#4D94FF"/>
</radialGradient>
<radialGradient id="paint2_radial" cx="0" cy="0" r="1" gradientUnits="userSpaceOnUse" gradientTransform="translate(239.675 75.2342) rotate(153.264) scale(210.512 306.398)">
<stop stop-color="#85D7FF"/>
<stop offset="1" stop-color="#1FA1FF"/>
</radialGradient>
<radialGradient id="paint3_radial" cx="0" cy="0" r="1" gradientUnits="userSpaceOnUse" gradientTransform="translate(239.675 75.2342) rotate(153.264) scale(210.512 306.398)">
<stop stop-color="#85D7FF"/>
<stop offset="1" stop-color="#4D94FF"/>
</radialGradient>
</defs>
</svg>
