<svg width="20" height="20" viewBox="0 0 20 20" fill="none" xmlns="http://www.w3.org/2000/svg">
    <path fill-rule="evenodd" clip-rule="evenodd" d="M1.10078 0.300049C0.658953 0.300049 0.300781 0.658221 0.300781 1.10005V7.90005C0.300781 8.34188 0.658954 8.70005 1.10078 8.70005H7.90078C8.34261 8.70005 8.70078 8.34188 8.70078 7.90005V1.10005C8.70078 0.658221 8.34261 0.300049 7.90078 0.300049H1.10078ZM1.10078 11.3C0.658953 11.3 0.300781 11.6582 0.300781 12.1V18.9C0.300781 19.3419 0.658954 19.7 1.10078 19.7H7.90078C8.34261 19.7 8.70078 19.3419 8.70078 18.9V12.1C8.70078 11.6582 8.34261 11.3 7.90078 11.3H1.10078ZM11.3008 1.10005C11.3008 0.658221 11.659 0.300049 12.1008 0.300049H18.9008C19.3426 0.300049 19.7008 0.658221 19.7008 1.10005V7.90005C19.7008 8.34188 19.3426 8.70005 18.9008 8.70005H12.1008C11.659 8.70005 11.3008 8.34188 11.3008 7.90005V1.10005ZM12.1008 11.3C11.659 11.3 11.3008 11.6582 11.3008 12.1V18.9C11.3008 19.3419 11.659 19.7 12.1008 19.7H18.9008C19.3426 19.7 19.7008 19.3419 19.7008 18.9V12.1C19.7008 11.6582 19.3426 11.3 18.9008 11.3H12.1008ZM12.7508 12.75H18.2508V18.25H12.7508V12.75ZM18.2508 1.75005H12.7508V7.25005H18.2508V1.75005ZM1.75078 1.75005H7.25078V7.25005H1.75078V1.75005ZM7.25078 12.75H1.75078V18.25H7.25078V12.75Z" fill="#9A9A9A" fill-opacity="0.5"/>
</svg>
