<svg width="56" height="19" viewBox="0 0 56 19" fill="none" xmlns="http://www.w3.org/2000/svg">
<path fill-rule="evenodd" clip-rule="evenodd" d="M9.84704 15.0329C11.586 15.0329 13.2028 14.4971 14.546 13.582L16.4893 16.4483C12.4801 19.1795 7.21443 19.1795 3.20483 16.4483L5.14813 13.582C6.48879 14.4971 8.10765 15.0329 9.84704 15.0329Z" fill="white"/>
<path fill-rule="evenodd" clip-rule="evenodd" d="M9.84688 15.0329C11.5859 15.0329 13.2027 14.4971 14.5458 13.582L14.5574 13.599C11.6717 16.5832 7.97293 16.6307 5.12939 13.6101L5.14838 13.582C6.48904 14.4971 8.1079 15.0329 9.84729 15.0329H9.84688Z" fill="white"/>
<path d="M18.6921 12.3268H21.0833V0H18.6921V12.3268Z" fill="white"/>
<path d="M22.3372 8.03359C22.3372 10.5597 24.1558 12.5633 26.9176 12.5633C29.6794 12.5633 31.515 10.5762 31.515 8.03359C31.515 5.49096 29.6794 3.50391 26.9176 3.50391C24.1558 3.50391 22.3372 5.49096 22.3372 8.03359ZM29.0731 8.03359C29.0731 9.46505 28.2479 10.4078 26.9176 10.4078C25.5873 10.4078 24.7621 9.46464 24.7621 8.03359C24.7621 6.60212 25.5873 5.65936 26.9176 5.65936C28.2479 5.65936 29.0731 6.60253 29.0731 8.03359Z" fill="white"/>
<path d="M38.0274 3.74219L36.0573 9.56877L34.0702 3.74219H31.5103L34.7439 12.3306H37.3538L40.587 3.74219H38.0274Z" fill="white"/>
<path d="M38.0274 3.74219L36.0573 9.56877L34.0702 3.74219H31.5103L34.7439 12.3306H37.3538L40.587 3.74219H38.0274Z" fill="white"/>
<path d="M49.1694 8.74106C49.2032 8.45502 49.2197 8.16856 49.2197 7.91595C49.2197 5.25527 47.5356 3.50391 44.993 3.50391C42.3662 3.50391 40.5979 5.40675 40.5979 8.06743C40.5979 10.7954 42.4504 12.5637 45.2287 12.5637C46.7947 12.5637 48.0747 12.0081 48.8998 11.0146L47.5356 9.60003C46.9631 10.2229 46.2222 10.5263 45.3129 10.5263C44.0329 10.5263 43.2247 9.93684 43.006 8.74106H49.1694ZM43.006 7.19196C43.2082 6.11423 43.9153 5.5248 45.0099 5.5248C46.1046 5.5248 46.7613 6.11423 46.8455 7.19196H43.006ZM55.9998 3.68924C55.7975 3.60503 55.5619 3.5716 55.2758 3.5716C54.1308 3.5716 53.2046 4.16103 52.7835 5.15455V3.74001H50.4427V12.3284H52.8339V8.16897C52.8339 6.55217 53.4906 5.86203 54.9555 5.86203C55.2923 5.86203 55.6461 5.89588 55.9994 5.96316V3.68965L55.9998 3.68924Z" fill="white"/>
<path fill-rule="evenodd" clip-rule="evenodd" d="M2.9459 0.0802377C2.62188 0.0802377 2.35689 0.345232 2.35689 0.669665C2.35689 0.993686 2.62188 1.25868 2.9459 1.25868H5.98055C5.51082 1.59591 5.0865 1.99216 4.71831 2.43712H0.589015C0.264995 2.43712 0 2.70212 0 3.02614C0 3.35016 0.264995 3.61557 0.589015 3.61557H3.93736C3.74295 3.98912 3.58321 4.38372 3.46227 4.79401H2.9459C2.62188 4.79401 2.35689 5.059 2.35689 5.38302C2.35689 5.70704 2.62188 5.97204 2.9459 5.97204H3.22823C3.20429 6.19947 3.19191 6.43062 3.19191 6.66425C3.19191 10.323 6.18528 13.3159 9.84361 13.3159C13.5019 13.3159 16.4953 10.323 16.4953 6.66425V5.67444H15.347V5.67113H11.3894V7.41506C11.3894 8.01151 11.6932 8.54067 12.1534 8.85561C11.5714 9.46815 10.7505 9.85161 9.84402 9.85161C8.09019 9.85161 6.65377 8.41767 6.65377 6.66383C6.65377 4.91 8.09019 3.47358 9.84402 3.47358C10.8235 3.47358 11.744 3.49999 12.7342 3.49999C15.1121 3.49999 15.0032 1.6764 15.0032 0.0117188H14.1954C10.4392 0.0117188 6.70206 0.0789994 2.94549 0.0789994L2.9459 0.0802377Z" fill="white"/>
<path fill-rule="evenodd" clip-rule="evenodd" d="M8.91428 0.0789994H5.61588C5.41693 0.440994 5.25059 0.835184 5.1218 1.25744H5.99109C5.59318 1.54308 5.22747 1.87164 4.90139 2.23611C4.04779 5.24351 5.34676 8.33553 8.51473 9.57878L8.41443 9.50489C7.3788 8.97697 6.66472 7.89965 6.66472 6.66342C6.66472 4.90958 8.10114 3.47316 9.85498 3.47316H12.4475H13.0428L13.1414 3.18794L14.2063 0.0117188H9.85498C9.53591 0.0117188 9.22179 0.0348336 8.91428 0.0789994Z" fill="white"/>
<path fill-rule="evenodd" clip-rule="evenodd" d="M2.9459 0.0802377C2.62188 0.0802377 2.35689 0.345232 2.35689 0.669665C2.35689 0.993686 2.62188 1.25868 2.9459 1.25868H5.98055C5.51082 1.59591 5.0865 1.99216 4.71831 2.43712H0.589015C0.264995 2.43712 0 2.70212 0 3.02614C0 3.35016 0.264995 3.61557 0.589015 3.61557H3.93736C3.74295 3.98912 3.58321 4.38372 3.46227 4.79401H2.9459C2.62188 4.79401 2.35689 5.059 2.35689 5.38302C2.35689 5.70704 2.62188 5.97204 2.9459 5.97204H3.22823C3.20429 6.19947 3.19191 6.43062 3.19191 6.66425C3.19191 10.323 6.18528 13.3159 9.84361 13.3159C13.5019 13.3159 16.4953 10.323 16.4953 6.66425V5.67444H15.347V5.67113H11.3894V7.41506C11.3894 8.01151 11.6932 8.54067 12.1534 8.85561C11.5714 9.46815 10.7505 9.85161 9.84402 9.85161C8.09019 9.85161 6.65377 8.41767 6.65377 6.66383C6.65377 4.91 8.09019 3.47358 9.84402 3.47358C10.8235 3.47358 11.744 3.49999 12.7342 3.49999C15.1121 3.49999 15.0032 1.6764 15.0032 0.0117188H14.1954C10.4392 0.0117188 6.70206 0.0789994 2.94549 0.0789994L2.9459 0.0802377Z" fill="white"/>
<path fill-rule="evenodd" clip-rule="evenodd" d="M9.84704 15.0329C11.586 15.0329 13.2028 14.4971 14.546 13.582L16.4893 16.4483C12.4801 19.1795 7.21443 19.1795 3.20483 16.4483L5.14813 13.582C6.48879 14.4971 8.10765 15.0329 9.84704 15.0329Z" fill="white"/>
<path fill-rule="evenodd" clip-rule="evenodd" d="M9.84688 15.0329C11.5859 15.0329 13.2027 14.4971 14.5458 13.582L14.5574 13.599C11.6717 16.5832 7.97293 16.6307 5.12939 13.6101L5.14838 13.582C6.48904 14.4971 8.1079 15.0329 9.84729 15.0329H9.84688Z" fill="white"/>
</svg>
