<svg width="28" height="22" viewBox="0 0 30 32" fill="none" xmlns="http://www.w3.org/2000/svg">
    <path fill-rule="evenodd" clip-rule="evenodd" d="M29.4447 26.1572C25.8876 24.6215 25.7523 18.0295 25.7497 17.8632V13.4408C25.7497 9.18446 23.0292 5.52447 19.1633 3.96608C19.155 1.77779 17.2907 0 15.0001 0C12.7094 0 10.8452 1.77789 10.8369 3.96598C6.97112 5.52437 4.25056 9.18436 4.25056 13.4407V17.8631C4.24805 18.0294 4.11263 24.6213 0.555497 26.1571C0.150282 26.3321 -0.0724251 26.7538 0.0212628 27.1694C0.114841 27.585 0.499273 27.8819 0.943976 27.8819H9.96164C10.1465 28.8541 10.6274 29.7586 11.3628 30.4912C12.3396 31.4642 13.6314 32 14.9999 32C16.3686 32 17.6604 31.4642 18.6371 30.4912C19.3727 29.7585 19.8535 28.854 20.0383 27.8819H29.0559C29.5006 27.8819 29.885 27.5851 29.9787 27.1694C30.0725 26.7538 29.8499 26.3322 29.4447 26.1572ZM24.7581 22.9993C25.132 24.0831 25.6615 25.1715 26.4123 26.0772H3.58594C4.33664 25.1716 4.86612 24.0832 5.24005 22.9993H24.7581ZM17.1851 3.37761C16.911 2.47031 16.035 1.80469 14.9988 1.80469C13.9627 1.80469 13.0867 2.47036 12.8125 3.37761C13.5187 3.23753 14.2499 3.16375 14.9988 3.16375C15.7477 3.16375 16.479 3.23758 17.1851 3.37761ZM6.13792 17.8686V13.4407C6.13792 8.7691 10.1133 4.96851 14.9998 4.96851C19.8862 4.96851 23.8616 8.7691 23.8616 13.4407V17.876C23.8629 18.0118 23.885 19.4383 24.261 21.1945H5.73828C6.11456 19.4367 6.13677 18.0076 6.13792 17.8686ZM11.8984 27.8818C12.302 29.2023 13.5593 30.1954 15 30.1954C16.4407 30.1954 17.6978 29.2023 18.1014 27.8818H11.8984Z" fill="#BFC5D2"/>
</svg>
