<svg width="25" height="25" viewBox="0 0 25 25" fill="none" xmlns="http://www.w3.org/2000/svg">
<circle cx="12.5" cy="12.5" r="12.5" fill="#E0E0E0"/>
<path d="M8.00419 8.816C7.87619 9.104 7.95619 9.232 8.26019 9.344L8.85219 9.552C9.14019 9.664 9.25219 9.6 9.38019 9.296C9.82819 8.224 10.5642 7.536 12.0682 7.536C13.6362 7.536 14.4522 8.4 14.4522 9.536C14.4522 11.024 13.5082 11.536 12.6122 12.128C11.7642 12.688 10.9482 13.328 10.9482 14.896C10.9482 15.216 11.0602 15.296 11.3482 15.296H11.8442C12.1322 15.296 12.2442 15.216 12.2442 14.896C12.2442 14 12.8202 13.536 13.4762 13.12C14.5162 12.464 15.9722 11.792 15.9722 9.472C15.9722 7.648 14.5642 6.176 12.1002 6.176C9.82819 6.176 8.59619 7.264 8.00419 8.816ZM11.6522 16.352H11.5562C10.9322 16.352 10.7402 16.56 10.7402 17.168V17.296C10.7402 17.92 10.9322 18.096 11.5562 18.096H11.6522C12.2762 18.096 12.4682 17.904 12.4682 17.296V17.168C12.4682 16.56 12.2762 16.352 11.6522 16.352Z" fill="black"/>
</svg>
