<svg width="20" height="21" viewBox="0 0 20 21" fill="none" xmlns="http://www.w3.org/2000/svg">
    <path fill-rule="evenodd" clip-rule="evenodd" d="M18.9763 8.16813L17.5725 7.92684C17.4263 7.44848 17.2383 6.98706 17.0085 6.5468L17.8357 5.3742C18.1866 4.87467 18.1323 4.19312 17.702 3.76133L16.457 2.49983C16.223 2.26277 15.9138 2.13154 15.5838 2.13154C15.3247 2.13154 15.0782 2.21197 14.8694 2.36437L13.7079 3.20255C13.2567 2.96125 12.7845 2.76229 12.2957 2.61413L12.0618 1.20869C11.9615 0.603342 11.4476 0.163086 10.8418 0.163086H9.08288C8.47708 0.163086 7.96319 0.603342 7.86292 1.20869L7.62059 2.64799C7.15266 2.79616 6.69727 2.99089 6.26276 3.22795L5.11382 2.38977C4.90492 2.23737 4.65424 2.15694 4.39521 2.15694C4.06515 2.15694 3.75181 2.28817 3.52202 2.52523L2.27281 3.78673C1.84666 4.21852 1.78817 4.90007 2.13911 5.3996L2.97471 6.58913C2.74492 7.03362 2.56109 7.49505 2.41904 7.9734L1.03196 8.21046C0.434508 8.31206 0 8.83275 0 9.44657V11.2288C0 11.8426 0.434508 12.3633 1.03196 12.4649L2.45246 12.7104C2.59869 13.1845 2.79088 13.6459 3.02484 14.0862L2.20178 15.2461C1.85083 15.7456 1.90515 16.4272 2.33548 16.859L3.58051 18.1205C3.81448 18.3575 4.12364 18.4888 4.4537 18.4888C4.71274 18.4888 4.95924 18.4083 5.16813 18.2559L6.34214 17.4093C6.76411 17.6336 7.20698 17.8157 7.66237 17.9596L7.89634 19.382C7.99661 19.9873 8.5105 20.4276 9.1163 20.4276H10.8794C11.4852 20.4276 11.9991 19.9873 12.0994 19.382L12.3375 17.9596C12.8096 17.8114 13.265 17.6209 13.6995 17.3881L14.8568 18.2263C15.0657 18.3787 15.3164 18.4591 15.5754 18.4591C15.9055 18.4591 16.2147 18.3279 16.4486 18.0908L17.6936 16.8293C18.1198 16.3975 18.1783 15.716 17.8273 15.2165L17.0001 14.0396C17.2299 13.5951 17.4221 13.1337 17.5641 12.6596L18.9679 12.4225C19.5654 12.3209 19.9999 11.8002 19.9999 11.1864V9.40423C20.0082 8.79042 19.5737 8.26973 18.9763 8.16813ZM18.881 11.1875C18.881 11.2426 18.8434 11.2891 18.7891 11.2976L17.0344 11.5939C16.813 11.632 16.6375 11.7971 16.5832 12.013C16.4244 12.6353 16.1821 13.2322 15.8562 13.7867C15.7434 13.9815 15.7518 14.2228 15.8813 14.409L16.9132 15.8822C16.9425 15.9245 16.9383 15.988 16.9007 16.0261L15.6557 17.2876C15.6264 17.3173 15.5972 17.3215 15.5763 17.3215C15.5512 17.3215 15.5303 17.313 15.5136 17.3003L14.0639 16.2547C13.8842 16.1235 13.6419 16.115 13.4497 16.2293C12.9024 16.5595 12.3133 16.805 11.6991 16.9659C11.4819 17.0209 11.3189 17.203 11.2855 17.4231L10.9889 19.201C10.9805 19.2561 10.9346 19.2942 10.8803 19.2942H9.12134C9.06703 19.2942 9.02107 19.2561 9.01271 19.201L8.72025 17.4231C8.68265 17.1987 8.51971 17.0209 8.30664 16.9659C7.70919 16.8093 7.13263 16.568 6.59367 16.2547C6.50594 16.2039 6.40567 16.1785 6.30957 16.1785C6.19677 16.1785 6.07979 16.2124 5.98369 16.2843L4.52141 17.3384C4.50052 17.3511 4.47963 17.3596 4.45874 17.3596C4.44203 17.3596 4.4086 17.3553 4.37936 17.3257L3.13433 16.0642C3.09672 16.0261 3.09255 15.9668 3.12179 15.9203L4.14957 14.4598C4.27909 14.2736 4.28744 14.028 4.17464 13.8333C3.84876 13.283 3.59808 12.6861 3.43932 12.0638C3.38083 11.8479 3.20535 11.6828 2.9881 11.6447L1.22082 11.3399C1.16651 11.3315 1.12891 11.2849 1.12891 11.2299V9.44767C1.12891 9.39264 1.16651 9.34607 1.22082 9.33761L2.96303 9.04128C3.18446 9.00318 3.36411 8.83809 3.41843 8.61796C3.57301 7.99567 3.81115 7.39455 4.13286 6.84C4.24566 6.64527 4.23313 6.40398 4.10361 6.22195L3.0633 4.74032C3.03405 4.69798 3.03823 4.63448 3.07583 4.59639L4.32087 3.33488C4.35011 3.30525 4.37936 3.30102 4.40025 3.30102C4.42531 3.30102 4.4462 3.30948 4.46292 3.32218L5.90431 4.36356C6.08814 4.49479 6.33046 4.50325 6.52265 4.38896C7.06578 4.05876 7.65488 3.80477 8.26904 3.64391C8.48211 3.58464 8.64505 3.40685 8.68265 3.18672L8.98347 1.39606C8.99182 1.34103 9.03778 1.30293 9.09209 1.30293H10.851C10.9053 1.30293 10.9513 1.34103 10.9596 1.39606L11.2521 3.16132C11.2897 3.38568 11.4526 3.56771 11.6699 3.62274C12.3008 3.7836 12.9024 4.03337 13.4622 4.36779C13.6544 4.48209 13.8926 4.47362 14.0764 4.34239L15.5178 3.29255C15.5387 3.27985 15.5596 3.27138 15.5805 3.27138C15.5972 3.27138 15.6306 3.27562 15.6598 3.30525L16.9049 4.56675C16.9425 4.60485 16.9467 4.66412 16.9174 4.71068L15.8855 6.17961C15.7559 6.36164 15.7476 6.60717 15.8604 6.8019C16.1863 7.35645 16.4286 7.95334 16.5873 8.57562C16.6417 8.79575 16.8213 8.96085 17.0386 8.99471L18.7933 9.29527C18.8476 9.30374 18.8852 9.35031 18.8852 9.40534V11.1875H18.881ZM6.8125 10.2917C6.8125 12.0739 8.24136 13.5217 10.0003 13.5217C11.7592 13.5217 13.1881 12.0739 13.1881 10.2917C13.1881 8.50956 11.7592 7.06179 10.0003 7.06179C8.24136 7.06179 6.8125 8.50956 6.8125 10.2917Z" fill="#9A9A9A" fill-opacity="0.5"/>
</svg>
