<svg width="20" height="21" viewBox="0 0 20 21" fill="none" xmlns="http://www.w3.org/2000/svg">
    <path fill-rule="evenodd" clip-rule="evenodd" d="M11.9531 0.319824H8.04688C7.72328 0.319824 7.46094 0.63627 7.46094 1.0266V19.8739C7.46094 20.2642 7.72328 20.5807 8.04688 20.5807H11.9531C12.2767 20.5807 12.5391 20.2642 12.5391 19.8739V1.0266C12.5391 0.63627 12.2767 0.319824 11.9531 0.319824ZM11.3672 19.1688H8.63281V12.1011H11.3672V19.1688ZM11.3672 10.6854H8.63281V1.73295H11.3672V10.6854ZM4.49219 8.80083H0.585938C0.262344 8.80083 0 9.11728 0 9.50761V19.8736C0 20.2639 0.262344 20.5804 0.585938 20.5804H4.49219C4.81578 20.5804 5.07812 20.2639 5.07812 19.8736V9.50761C5.07812 9.11728 4.81578 8.80083 4.49219 8.80083ZM1.17188 19.167H3.90625V16.8111H1.17188V19.167ZM3.90625 15.3974H1.17188V10.2144H3.90625V15.3974ZM15.5078 8.80083H19.4141C19.7377 8.80083 20 9.11728 20 9.50761V19.8736C20 20.2639 19.7377 20.5804 19.4141 20.5804H15.5078C15.1842 20.5804 14.9219 20.2639 14.9219 19.8736V9.50761C14.9219 9.11728 15.1842 8.80083 15.5078 8.80083ZM18.8281 19.167H16.0938V16.8111H18.8281V19.167ZM16.0938 15.3974H18.8281V10.2144H16.0938V15.3974Z" fill="#9A9A9A" fill-opacity="0.5"/>
</svg>
