<svg width="22" height="21" viewBox="0 0 22 21" fill="none" xmlns="http://www.w3.org/2000/svg">
    <path d="M21.0332 8.97324H20.7112V7.97097V4.40798C20.7112 3.24146 19.7955 2.29241 18.6701 2.29241H9.8195L3.84845 0.524103C3.84673 0.523613 3.84497 0.523346 3.84325 0.522856C3.84148 0.522366 3.83981 0.521654 3.83805 0.521208C3.83444 0.520273 3.83087 0.519828 3.82731 0.519026C3.82176 0.517823 3.81622 0.516576 3.81068 0.515641C3.80565 0.514795 3.80071 0.51426 3.79568 0.513637C3.78984 0.512924 3.78404 0.512301 3.77823 0.511944C3.77351 0.511677 3.76882 0.511633 3.7641 0.511544C3.75808 0.511454 3.75211 0.51141 3.74614 0.511677C3.74171 0.511855 3.73729 0.512301 3.7329 0.512657C3.72676 0.513191 3.72061 0.51377 3.71456 0.514706C3.71043 0.515329 3.70635 0.516131 3.70227 0.516888C3.69599 0.518046 3.68981 0.519293 3.68366 0.520852C3.67984 0.521832 3.6761 0.522945 3.67232 0.524059C3.66604 0.525929 3.65986 0.527844 3.65367 0.530071C3.65019 0.531363 3.64675 0.532743 3.64327 0.534169C3.63704 0.536663 3.63085 0.53929 3.62479 0.542185C3.62157 0.543744 3.61843 0.545437 3.61525 0.547084C3.6092 0.550247 3.60322 0.553453 3.59738 0.557061C3.59433 0.558887 3.59141 0.560846 3.5884 0.562806C3.58264 0.566547 3.57697 0.570377 3.57147 0.574519C3.56859 0.576657 3.5658 0.578973 3.56296 0.581245C3.55768 0.585476 3.55243 0.589796 3.54741 0.594383C3.54457 0.596966 3.54186 0.599683 3.53911 0.602355C3.53439 0.606987 3.5297 0.611619 3.52524 0.616518C3.52244 0.619591 3.51982 0.622798 3.51711 0.626005C3.51303 0.630859 3.50899 0.635758 3.50517 0.64088C3.50242 0.644577 3.49984 0.648362 3.49722 0.652148C3.49383 0.657092 3.49047 0.66208 3.48738 0.667202C3.48472 0.671566 3.48227 0.676109 3.47982 0.680607C3.47711 0.685551 3.4744 0.690539 3.47195 0.695661C3.46955 0.700649 3.4674 0.705771 3.46521 0.710893C3.46306 0.715926 3.46095 0.720958 3.45906 0.726125C3.45709 0.731558 3.45537 0.737125 3.45361 0.742737C3.45249 0.746345 3.45111 0.749729 3.45008 0.753381C3.44957 0.755207 3.44935 0.756989 3.44888 0.75877C3.44841 0.760596 3.44772 0.762333 3.44729 0.764159L3.07879 2.29233H2.04123C0.918069 2.29233 0.00403905 3.23754 0.000343749 4.40086C0.000300781 4.40326 0 4.40553 0 4.40789V15.9876C0 16.172 0.144804 16.3216 0.322265 16.3216C0.500155 16.3216 0.64453 16.172 0.64453 15.9876V5.94857C1.00994 6.3047 1.50124 6.52355 2.04123 6.52355H18.6701C18.6705 6.52355 18.6709 6.52351 18.6713 6.52351C19.4407 6.52413 20.0666 7.17322 20.0666 7.97102V10.3094H16.5212C16.521 10.3094 16.5208 10.3095 16.5206 10.3095C16.5113 10.3095 16.502 10.31 16.4928 10.3109C16.4825 10.3118 16.4723 10.3133 16.4624 10.3152C16.4609 10.3155 16.4594 10.3156 16.4579 10.316C16.4495 10.3177 16.4412 10.32 16.433 10.3224C16.4312 10.3229 16.4294 10.3233 16.4276 10.3239C16.4203 10.3262 16.4132 10.329 16.4061 10.3318C16.4034 10.3328 16.4007 10.3337 16.398 10.3349C16.392 10.3374 16.3863 10.3404 16.3806 10.3433C16.3768 10.3452 16.373 10.3469 16.3693 10.3489C16.3648 10.3514 16.3606 10.3542 16.3563 10.3568C16.3516 10.3598 16.3467 10.3626 16.3421 10.3658C16.3389 10.368 16.336 10.3704 16.333 10.3727C16.3275 10.3768 16.322 10.3808 16.3167 10.3853C16.3145 10.3873 16.3124 10.3895 16.3102 10.3915C16.3045 10.3966 16.2989 10.4016 16.2936 10.4071C16.2905 10.4104 16.2876 10.4139 16.2847 10.4173C16.2805 10.422 16.2762 10.4266 16.2722 10.4316C16.2656 10.44 16.2593 10.4487 16.2535 10.4578C16.2534 10.4579 16.2532 10.4581 16.2532 10.4582L14.5345 13.1305C14.5225 13.1492 14.5124 13.1689 14.5043 13.1894C14.5013 13.1971 14.4988 13.2049 14.4964 13.2126C14.4957 13.215 14.4947 13.2172 14.494 13.2196C14.4916 13.2278 14.4898 13.2362 14.488 13.2445C14.4875 13.2466 14.4869 13.2488 14.4865 13.251C14.4851 13.2584 14.4841 13.266 14.4832 13.2735C14.4828 13.2767 14.4822 13.2799 14.4819 13.2832C14.4813 13.2894 14.4812 13.2955 14.481 13.3017C14.4808 13.3064 14.4804 13.3111 14.4804 13.3159C14.4804 13.3205 14.4808 13.3251 14.481 13.3297C14.4812 13.336 14.4813 13.3424 14.4819 13.3487C14.4822 13.3518 14.4828 13.3548 14.4832 13.3579C14.4841 13.3656 14.4851 13.3732 14.4865 13.3808C14.4869 13.3829 14.4875 13.385 14.488 13.3871C14.4898 13.3954 14.4917 13.4038 14.4941 13.4121C14.4947 13.4145 14.4957 13.4168 14.4964 13.4192C14.4989 13.4269 14.5013 13.4347 14.5044 13.4424C14.5125 13.4629 14.5226 13.4826 14.5346 13.5013L16.2532 16.1732C16.2533 16.1733 16.2534 16.1734 16.2535 16.1735C16.2604 16.1842 16.268 16.1943 16.276 16.2041C16.2786 16.2073 16.2814 16.2103 16.2841 16.2133C16.2896 16.2195 16.2952 16.2255 16.3011 16.2312C16.3046 16.2346 16.308 16.2379 16.3116 16.2411C16.3178 16.2466 16.3243 16.2518 16.331 16.2569C16.334 16.2592 16.3369 16.2617 16.3399 16.2638C16.3496 16.2706 16.3596 16.2769 16.3699 16.2826C16.3726 16.284 16.3753 16.2852 16.3779 16.2866C16.3861 16.2909 16.3946 16.2948 16.4032 16.2983C16.4066 16.2997 16.4099 16.301 16.4133 16.3022C16.4215 16.3052 16.4298 16.3079 16.4384 16.3103C16.4418 16.3112 16.4453 16.3122 16.4488 16.3131C16.4575 16.3152 16.4664 16.3168 16.4753 16.3181C16.4786 16.3186 16.4818 16.3193 16.4851 16.3197C16.4962 16.321 16.5074 16.3217 16.5189 16.3218C16.5198 16.3218 16.5207 16.3219 16.5216 16.3219C16.5218 16.3219 16.522 16.3219 16.5222 16.3219H20.0668V18.6605C20.0668 19.4587 19.4403 20.108 18.6703 20.108H2.0414C1.2714 20.108 0.644917 19.4587 0.644917 18.6605C0.644917 18.6587 0.644702 18.657 0.644659 18.6553V17.3239C0.644659 17.14 0.500284 16.9899 0.322394 16.9899C0.144933 16.9899 0.000128906 17.14 0.000128906 17.3239V18.6605C0.000128906 18.6639 0.000515624 18.6673 0.00064453 18.6708C0.00601561 19.8326 0.919315 20.7761 2.0414 20.7761H18.6703C19.7956 20.7761 20.7111 19.8272 20.7113 18.6608C20.7113 18.6608 20.7113 18.6607 20.7113 18.6606V16.3219H21.0334C21.5664 16.3219 22 15.8724 22 15.32V9.97515C21.9999 9.42271 21.5662 8.97324 21.0332 8.97324ZM3.99179 1.26133L9.67822 2.94542C9.67848 2.94551 9.67878 2.94555 9.67904 2.94564L13.4902 4.07431H3.31349L3.99179 1.26133ZM20.0666 6.43025C19.7012 6.07421 19.21 5.8554 18.6701 5.8554C18.6696 5.8554 18.6691 5.85549 18.6685 5.85549H2.04123C1.27119 5.85549 0.644702 5.20614 0.644702 4.40798C0.644702 3.60983 1.27119 2.96047 2.04123 2.96047H2.9177L2.64915 4.07431H2.04131C1.86334 4.07431 1.71905 4.22387 1.71905 4.40834C1.71905 4.59281 1.86334 4.74237 2.04131 4.74237H2.89965C2.90008 4.74237 2.90056 4.74246 2.90103 4.74246C2.90137 4.74246 2.90172 4.74237 2.90202 4.74237H15.7901C15.7905 4.74237 15.7909 4.74246 15.7913 4.74246C15.7916 4.74246 15.792 4.74237 15.7923 4.74237H18.2401C18.418 4.74237 18.5623 4.59281 18.5623 4.40834C18.5623 4.22387 18.418 4.07431 18.2401 4.07431H15.8363L12.0753 2.96047H18.6701C19.4401 2.96047 20.0666 3.60983 20.0666 4.40798V6.43025ZM21.3553 15.3198C21.3553 15.5039 21.2108 15.6537 21.0332 15.6537H16.6937L15.1898 13.3157L16.6937 10.9774H21.0332C21.0378 10.9774 21.0421 10.9769 21.0466 10.9767C21.1547 10.9752 21.2585 10.9552 21.3553 10.9197V15.3198ZM21.0332 10.309C21.031 10.309 21.0288 10.3093 21.0266 10.3094H20.7112V9.6413H21.0332C21.2108 9.6413 21.3553 9.79108 21.3553 9.97515C21.3553 10.1592 21.2108 10.309 21.0332 10.309Z" fill="#9A9A9A" fill-opacity="0.5"/>
</svg>
